HIERARCHY
ROOT Hips
{
	OFFSET 0.000000 0.000000 0.000000
	CHANNELS 6 Xposition Yposition Zposition Xrotation Yrotation Zrotation
	JOINT LeftUpLeg_virtual
	{
		OFFSET 0.000000 0.000000 0.000000
		CHANNELS 3 Xrotation Yrotation Zrotation
		JOINT LeftUpLeg
		{
			OFFSET 13.026900 -6.336304 -1.092800
			CHANNELS 3 Xrotation Yrotation Zrotation
			JOINT LeftLeg
			{
				OFFSET 0.524474 -46.096886 9.782700
				CHANNELS 3 Xrotation Yrotation Zrotation
				JOINT LeftFoot
				{
					OFFSET -0.524474 -53.427422 -12.948200
					CHANNELS 3 Xrotation Yrotation Zrotation
					JOINT LeftToeBase
					{
						OFFSET 0.192200 -14.009700 16.364100
						CHANNELS 3 Xrotation Yrotation Zrotation
						JOINT LeftToe_End
						{
							OFFSET -1.784700 -0.561700 9.474800
							CHANNELS 3 Xrotation Yrotation Zrotation
							End Site
							{
								OFFSET 0 0 0
							}
						}
					}
				}
			}
		}
	}
	JOINT RightUpLeg_virtual
	{
		OFFSET 0.000000 0.000000 0.000000
		CHANNELS 3 Xrotation Yrotation Zrotation
		JOINT RightUpLeg
		{
			OFFSET -12.883000 -6.336304 -1.092800
			CHANNELS 3 Xrotation Yrotation Zrotation
			JOINT RightLeg
			{
				OFFSET -0.524587 -46.096825 9.782800
				CHANNELS 3 Xrotation Yrotation Zrotation
				JOINT RightFoot
				{
					OFFSET 0.524587 -53.427383 -12.948300
					CHANNELS 3 Xrotation Yrotation Zrotation
					JOINT RightToeBase
					{
						OFFSET -0.192200 -14.009700 16.364100
						CHANNELS 3 Xrotation Yrotation Zrotation
						JOINT RightToe_End
						{
							OFFSET 1.784700 -0.561700 9.474800
							CHANNELS 3 Xrotation Yrotation Zrotation
							End Site
							{
								OFFSET 0 0 0
							}
						}
					}
				}
			}
		}
	}
	JOINT Spine_virtual
	{
		OFFSET 0.000000 0.000000 0.000000
		CHANNELS 3 Xrotation Yrotation Zrotation
		JOINT Spine
		{
			OFFSET 0.072000 7.257294 -0.789700
			CHANNELS 3 Xrotation Yrotation Zrotation
			JOINT Spine1
			{
				OFFSET 0.000000 12.508769 -0.658067
				CHANNELS 3 Xrotation Yrotation Zrotation
				JOINT Spine1_split
				{
					OFFSET 0.000000 12.508769 -0.658067
					CHANNELS 3 Xrotation Yrotation Zrotation
					JOINT Spine2
					{
						OFFSET 0.000000 12.508769 -0.658067
						CHANNELS 3 Xrotation Yrotation Zrotation
						JOINT Neck_virtual
						{
							OFFSET 0.000000 0.000000 0.000000
							CHANNELS 3 Xrotation Yrotation Zrotation
							JOINT Neck
							{
								OFFSET 0.000000 14.033295 7.520400
								CHANNELS 3 Xrotation Yrotation Zrotation
								JOINT Head
								{
									OFFSET 0.000000 8.198502 5.703100
									CHANNELS 3 Xrotation Yrotation Zrotation
									JOINT HeadTop_End
									{
										OFFSET 0.000000 17.760803 13.332701
										CHANNELS 3 Xrotation Yrotation Zrotation
										End Site
										{
											OFFSET 0 0 0
										}
									}
								}
							}
						}
						JOINT LeftShoulder_virtual
						{
							OFFSET 0.000000 0.000000 0.000000
							CHANNELS 3 Xrotation Yrotation Zrotation
							JOINT LeftShoulder
							{
								OFFSET 6.292450 5.785301 -0.669000
								CHANNELS 3 Xrotation Yrotation Zrotation
								JOINT LeftShoulder_split
								{
									OFFSET 6.292450 5.785301 -0.669000
									CHANNELS 3 Xrotation Yrotation Zrotation
									JOINT LeftArm
									{
										OFFSET 13.907140 -6.093903 1.965100
										CHANNELS 3 Xrotation Yrotation Zrotation
										JOINT LeftForeArm
										{
											OFFSET 34.140198 0.000000 0.000000
											CHANNELS 3 Xrotation Yrotation Zrotation
											JOINT LeftHand
											{
												OFFSET 40.960209 0.000000 0.000000
												CHANNELS 3 Xrotation Yrotation Zrotation
												End Site
												{
													OFFSET 0 0 0
												}
											}
										}
									}
								}
							}
						}
						JOINT RightShoulder_virtual
						{
							OFFSET 0.000000 0.000000 0.000000
							CHANNELS 3 Xrotation Yrotation Zrotation
							JOINT RightShoulder
							{
								OFFSET -6.292450 5.785301 -0.669000
								CHANNELS 3 Xrotation Yrotation Zrotation
								JOINT RightShoulder_split
								{
									OFFSET -6.292450 5.785301 -0.669000
									CHANNELS 3 Xrotation Yrotation Zrotation
									JOINT RightArm
									{
										OFFSET -13.907140 -6.093903 1.965100
										CHANNELS 3 Xrotation Yrotation Zrotation
										JOINT RightForeArm
										{
											OFFSET -34.140198 0.000000 0.000000
											CHANNELS 3 Xrotation Yrotation Zrotation
											JOINT RightHand
											{
												OFFSET -40.960209 0.000000 0.000000
												CHANNELS 3 Xrotation Yrotation Zrotation
												End Site
												{
													OFFSET 0 0 0
												}
											}
										}
									}
								}
							}
						}
					}
				}
			}
		}
	}
}
MOTION
Frames: 10
Frame Time: 0.03333333
-4.994566 112.707870 -4.853876 0.000000 0.000000 0.000000 -8.404748 -3.015253 8.060570 0.539228 14.657941 -3.909436 9.034272 3.204129 -0.500623 2.054133 -1.722841 -0.327971 -4.173773 0.198777 0.077007 0.000000 0.000000 0.000000 -8.363521 -2.337756 7.899268 -8.720745 -8.888342 -21.559953 29.106373 3.907205 1.158218 -9.516095 -14.474434 5.620021 -5.596096 0.155719 -0.297803 0.000000 0.000000 0.000000 -8.563083 -4.304680 7.436025 2.832730 -0.955131 -6.073715 3.918378 2.046017 -3.626807 2.081543 -1.725538 1.862880 0.000000 0.000000 0.000000 3.439191 1.648818 -3.363301 -1.658512 -2.086122 -5.461895 -0.649570 -12.593689 3.726204 0.000000 0.000000 0.000000 3.048566 1.382216 -3.693291 5.420224 -8.111330 -16.992886 -5.102769 4.434301 -6.000651 19.518804 -0.850919 -46.727455 0.850521 -41.821177 -5.098757 0.000000 0.000000 0.000000 1.832128 1.783146 -2.412227 8.505777 5.124965 4.241188 -0.732979 4.970994 1.476215 -0.128018 -7.922811 69.437643 17.460499 32.345822 2.582694 0.000000 0.000000 0.000000 
-5.677178 113.143005 -3.774431 0.000000 0.000000 0.000000 -8.446808 -2.914706 7.793653 0.328186 13.653873 -3.511250 9.731768 3.170417 -0.420581 2.656752 -1.299522 -0.142297 -5.071072 0.126247 0.256922 0.000000 0.000000 0.000000 -8.384622 -2.131171 7.731166 -7.562352 -9.529323 -21.116693 27.771599 3.691094 0.914525 -9.500295 -13.627337 6.962504 -7.224957 0.174968 -0.383403 0.000000 0.000000 0.000000 -8.857774 -4.005561 6.850657 2.701858 -0.967852 -6.168779 4.819031 2.068938 -3.299452 1.852859 -1.042888 1.914381 0.000000 0.000000 0.000000 4.169645 1.748339 -3.107264 -2.469361 -1.954054 -5.143509 -2.421954 -11.203049 3.397746 0.000000 0.000000 0.000000 4.090523 1.419009 -3.271260 5.655143 -8.906714 -15.151393 -3.019972 2.355762 -3.330774 20.494618 -3.693891 -48.044859 0.742531 -43.041526 -4.962311 0.000000 0.000000 0.000000 2.532043 1.842847 -2.189451 7.914905 5.644896 4.343356 -1.050620 5.848003 1.220500 0.249869 -5.089340 68.147386 18.185327 35.907018 1.541291 0.000000 0.000000 0.000000 
-6.382924 113.938744 -3.032198 0.000000 0.000000 0.000000 -8.693546 -2.883112 7.305588 0.204524 12.566585 -3.088402 10.651531 2.962198 -0.354476 3.017604 -0.459990 0.450992 -6.224915 0.053925 0.528851 0.000000 0.000000 0.000000 -8.467932 -2.046028 7.335409 -6.317440 -10.105233 -20.471293 25.604853 3.075924 0.573693 -9.129078 -12.505123 7.757369 -7.219132 0.207917 -0.390509 0.000000 0.000000 0.000000 -9.232748 -3.688992 5.928207 2.764190 -0.661843 -6.084876 6.393341 2.103917 -2.685528 1.451630 -0.500687 1.458813 0.000000 0.000000 0.000000 5.860385 1.909395 -2.604952 -4.880020 -1.590906 -5.281772 -4.697573 -9.414228 2.614419 0.000000 0.000000 0.000000 5.839650 1.642598 -2.589926 5.747379 -10.539737 -12.259624 -0.839518 0.891171 -1.665921 25.224268 -8.963161 -45.899284 -3.033859 -48.911265 -6.211071 0.000000 0.000000 0.000000 4.137202 1.955795 -1.751783 7.295097 6.458787 3.983002 -1.242558 6.289928 1.172570 2.052906 0.667790 65.649545 20.318406 38.865894 -2.106986 0.000000 0.000000 0.000000 
-6.873121 114.771530 -2.608004 0.000000 0.000000 0.000000 -9.068958 -2.954175 6.689202 0.172734 11.759804 -2.786279 11.681656 2.637620 -0.340299 3.143829 0.757516 1.324420 -6.933746 0.014863 0.697869 0.000000 0.000000 0.000000 -8.520407 -1.993684 6.827466 -6.044339 -10.227157 -19.906375 24.334559 2.340533 0.256722 -7.642476 -11.264146 8.395975 -6.454682 0.224679 -0.379164 0.000000 0.000000 0.000000 -9.801848 -3.376170 4.961802 3.163309 -0.196577 -5.866952 8.379687 2.096487 -1.905077 1.039842 -0.878380 1.352082 0.000000 0.000000 0.000000 8.195402 2.017667 -1.967174 -8.363781 -0.911148 -5.804758 -7.435286 -7.244413 1.390685 0.000000 0.000000 0.000000 7.895473 1.927375 -1.809790 5.711084 -12.850942 -8.741124 0.541757 0.591658 -2.417706 32.128305 -14.219784 -40.496506 -10.902900 -58.281799 -9.470101 0.000000 0.000000 0.000000 6.377943 2.049685 -1.207503 6.555426 7.645616 3.516918 -1.162077 5.910638 1.084405 5.098785 6.996415 61.969343 23.640811 41.132813 -7.997048 0.000000 0.000000 0.000000 
-7.222374 115.611748 -2.366270 0.000000 0.000000 0.000000 -9.528514 -2.936719 6.068684 0.037058 11.395371 -2.567212 12.555921 2.056102 -0.424830 3.401086 2.045794 1.886726 -7.251672 0.052476 0.752087 0.000000 0.000000 0.000000 -8.520269 -1.819593 6.254004 -7.462887 -9.530329 -19.626767 25.752081 1.991950 0.017678 -4.724730 -9.868751 9.607174 -6.466637 0.226092 -0.401665 0.000000 0.000000 0.000000 -10.452291 -2.995524 4.153622 3.882613 0.185527 -5.564877 10.456684 2.008202 -1.145884 -0.079217 -1.107997 1.014755 0.000000 0.000000 0.000000 10.770011 1.983056 -1.347273 -12.069061 0.082678 -6.541597 -10.709217 -4.906185 -0.198441 0.000000 0.000000 0.000000 9.957921 2.127577 -1.120176 5.565724 -15.669871 -5.379993 1.511015 0.680358 -4.845762 39.986612 -17.785630 -32.892774 -22.413448 -68.560373 -15.186833 0.000000 0.000000 0.000000 8.866429 2.044243 -0.694062 5.784940 9.358022 3.614540 -1.230754 5.002936 0.497886 9.100061 12.113950 57.150051 27.734711 43.677294 -15.730785 0.000000 0.000000 0.000000 
-7.341774 116.585266 -2.556906 0.000000 0.000000 0.000000 -9.863590 -2.781955 5.539360 -0.286116 11.459948 -2.372471 13.103357 1.282423 -0.571859 4.228786 3.148286 2.089321 -7.532519 0.129895 0.751334 0.000000 0.000000 0.000000 -8.435066 -1.399830 5.653033 -10.692790 -7.706991 -19.431813 30.465850 2.216742 -0.321556 -1.449738 -8.337093 11.000567 -7.285665 0.216860 -0.447271 0.000000 0.000000 0.000000 -10.873826 -2.585434 3.616673 4.810878 0.357121 -5.250189 12.331024 1.809779 -0.595787 -1.250080 -1.306677 0.803135 0.000000 0.000000 0.000000 13.154652 1.828567 -0.873448 -15.079920 1.306552 -7.393976 -14.341200 -2.680027 -1.842701 0.000000 0.000000 0.000000 11.754313 2.202276 -0.624255 5.252090 -18.879570 -3.045042 1.880594 0.669830 -7.955172 47.827252 -18.901312 -24.679984 -36.244846 -77.826925 -23.019834 0.000000 0.000000 0.000000 11.109533 1.948034 -0.324832 4.988907 11.645385 4.808539 -1.095892 4.171010 -0.759880 13.014086 14.295717 51.403044 32.597378 47.473223 -25.070042 0.000000 0.000000 0.000000 
-7.293326 117.790176 -3.129171 0.000000 0.000000 0.000000 -9.876500 -2.574025 5.018671 -0.960864 11.750202 -1.963220 13.259246 0.515853 -0.779554 5.857507 3.958514 2.247005 -7.776704 0.177776 0.705061 0.000000 0.000000 0.000000 -8.243991 -0.893552 4.931244 -15.120975 -5.072399 -18.923333 37.842595 2.642685 -0.784500 0.715887 -6.912904 11.498333 -7.235526 0.184835 -0.398051 0.000000 0.000000 0.000000 -10.768033 -2.114460 3.215707 5.800839 0.333602 -4.848812 13.829199 1.581846 -0.337788 -1.646729 -1.047348 0.878644 0.000000 0.000000 0.000000 14.977534 1.634413 -0.636479 -16.478682 2.499737 -8.271592 -17.964233 -0.664392 -3.328480 0.000000 0.000000 0.000000 13.163842 2.162582 -0.418427 4.672626 -21.903428 -2.509471 1.620098 0.030959 -9.847160 54.054035 -18.817017 -16.930393 -54.535454 -85.938321 -36.078036 0.000000 0.000000 0.000000 12.887245 1.814606 -0.187616 4.166391 14.165594 7.024806 -0.316393 3.761495 -2.372173 15.594128 13.049683 45.369497 39.159940 53.270186 -36.574143 0.000000 0.000000 0.000000 
-7.325618 119.212280 -3.821554 0.000000 0.000000 0.000000 -9.518504 -2.275831 4.362858 -2.336035 11.964237 -1.073502 13.229856 -0.268565 -1.001726 8.291949 4.305649 2.234474 -7.628076 0.203328 0.529533 0.000000 0.000000 0.000000 -8.008782 -0.264939 4.086707 -20.063664 -2.292498 -17.743944 46.178209 2.707852 -1.290570 1.104612 -5.911834 10.417318 -5.547448 0.177160 -0.191804 0.000000 0.000000 0.000000 -9.863597 -1.550898 2.755588 6.685857 0.173164 -4.264324 14.873084 1.451467 -0.391341 -1.559418 -0.137466 0.937574 0.000000 0.000000 0.000000 16.149103 1.553343 -0.659256 -15.621483 3.409918 -9.150023 -20.973233 0.842303 -4.404715 0.000000 0.000000 0.000000 14.255928 2.142518 -0.456339 3.611921 -24.210060 -4.222295 0.601496 -0.984507 -9.789867 57.772083 -17.971585 -9.870167 138.778775 -86.954250 161.232599 0.000000 0.000000 0.000000 14.093845 1.771702 -0.291035 3.459828 16.643530 10.016470 0.663537 3.411097 -3.800701 16.204200 9.293274 39.210811 50.200596 60.993207 -52.487743 0.000000 0.000000 0.000000 
-7.547336 120.534073 -4.647013 0.000000 0.000000 0.000000 -8.795761 -1.912617 3.485668 -4.652854 11.836860 0.307729 13.462006 -0.926550 -1.149383 11.024159 4.298016 1.975886 -6.910869 0.215306 0.112504 0.000000 0.000000 0.000000 -7.736346 0.211958 3.192231 -24.923249 -0.014309 -15.929857 53.442679 2.262775 -1.678749 0.041031 -5.346818 8.227292 -3.526871 0.199752 0.047356 0.000000 0.000000 0.000000 -8.338572 -0.997849 2.126685 7.367683 0.063265 -3.441961 15.530260 1.529367 -0.629995 -0.749110 0.497964 1.273798 0.000000 0.000000 0.000000 16.788940 1.734689 -0.858357 -12.056133 3.851371 -10.060420 -22.586467 1.747899 -5.058365 0.000000 0.000000 0.000000 15.214697 2.272476 -0.580561 2.245288 -25.373075 -7.565010 -0.509811 -2.105759 -8.250983 58.272982 -15.679749 -4.431946 130.816400 -81.087910 155.461430 0.000000 0.000000 0.000000 14.811817 1.915780 -0.548298 2.940331 18.800871 13.252541 1.478157 3.001357 -4.612192 14.770424 4.247270 33.079982 72.499617 69.044231 -78.935424 0.000000 0.000000 0.000000 
-8.081341 121.508224 -5.362020 0.000000 0.000000 0.000000 -7.864920 -1.668096 2.420920 -7.348867 11.269863 1.842438 14.175222 -1.200459 -1.166032 12.526453 4.258288 1.829924 -6.164845 0.215170 -0.463002 0.000000 0.000000 0.000000 -7.394905 0.253275 2.265006 -28.865967 1.191445 -13.896470 58.446059 1.526642 -1.854407 -1.527961 -5.062892 5.881328 -2.619049 0.231149 0.182349 0.000000 0.000000 0.000000 -6.613999 -0.690662 1.366362 7.788449 0.124718 -2.404930 16.001665 1.853915 -0.899855 0.162036 0.799124 1.343497 0.000000 0.000000 0.000000 17.287152 2.159979 -1.115831 -5.829402 3.621145 -10.854060 -22.123476 1.981389 -5.513186 0.000000 0.000000 0.000000 16.204084 2.579616 -0.672049 0.841243 -25.206478 -11.479826 -1.489501 -3.014031 -5.802584 54.852734 -12.633993 -1.385599 138.688781 -75.319296 163.378466 0.000000 0.000000 0.000000 15.384533 2.229605 -0.873109 2.621435 20.550096 16.220724 2.124628 2.677363 -4.737164 11.773339 -0.874640 27.156328 112.136249 72.384863 -121.733574 0.000000 0.000000 0.000000 
